<svg width="138.7" height="22.001" viewBox="0 0 338.7 72.001" xmlns="http://www.w3.org/2000/svg"><g id="svgGroup" stroke-linecap="round" fill-rule="evenodd" font-size="9pt" stroke="#fff" stroke-width="0.25mm" fill="black" style="stroke:#fff;stroke-width:0.25mm;fill:#fff"><path d="M 97.7 48.5 L 61.3 48.5 A 24.088 24.088 0 0 0 62.439 53.525 Q 63.775 57.338 66.4 59.9 Q 70.6 64 77.5 64 Q 82 64 85.6 63.05 Q 89.2 62.1 92.5 60.6 L 94.6 68.3 A 35.406 35.406 0 0 1 89.781 70.142 A 44.267 44.267 0 0 1 86.5 71 A 40.711 40.711 0 0 1 81.408 71.781 A 54.607 54.607 0 0 1 76.4 72 A 29.178 29.178 0 0 1 70.604 71.447 A 23.608 23.608 0 0 1 66.3 70.15 Q 61.8 68.3 58.65 64.85 A 22.127 22.127 0 0 1 55.004 59.35 A 27.574 27.574 0 0 1 53.8 56.35 A 31.581 31.581 0 0 1 52.449 50.393 A 42.813 42.813 0 0 1 52.1 44.8 A 34.878 34.878 0 0 1 52.904 37.203 A 30.597 30.597 0 0 1 53.8 34 A 27.699 27.699 0 0 1 56.614 28.051 A 24.152 24.152 0 0 1 58.6 25.35 Q 61.7 21.7 66 19.65 Q 70.3 17.6 75.6 17.6 A 27.908 27.908 0 0 1 80.504 18.011 A 20.619 20.619 0 0 1 85.4 19.5 Q 89.6 21.4 92.4 24.7 Q 95.2 28 96.6 32.4 A 30.348 30.348 0 0 1 97.997 41.242 A 34.055 34.055 0 0 1 98 41.7 A 75.204 75.204 0 0 1 97.709 48.397 A 69.426 69.426 0 0 1 97.7 48.5 Z M 189.8 48.5 L 153.4 48.5 A 24.088 24.088 0 0 0 154.539 53.525 Q 155.875 57.338 158.5 59.9 Q 162.7 64 169.6 64 Q 174.1 64 177.7 63.05 Q 181.3 62.1 184.6 60.6 L 186.7 68.3 A 35.406 35.406 0 0 1 181.881 70.142 A 44.267 44.267 0 0 1 178.6 71 A 40.711 40.711 0 0 1 173.508 71.781 A 54.607 54.607 0 0 1 168.5 72 A 29.178 29.178 0 0 1 162.704 71.447 A 23.608 23.608 0 0 1 158.4 70.15 Q 153.9 68.3 150.75 64.85 A 22.127 22.127 0 0 1 147.104 59.35 A 27.574 27.574 0 0 1 145.9 56.35 A 31.581 31.581 0 0 1 144.549 50.393 A 42.813 42.813 0 0 1 144.2 44.8 A 34.878 34.878 0 0 1 145.004 37.203 A 30.597 30.597 0 0 1 145.9 34 A 27.699 27.699 0 0 1 148.714 28.051 A 24.152 24.152 0 0 1 150.7 25.35 Q 153.8 21.7 158.1 19.65 Q 162.4 17.6 167.7 17.6 A 27.908 27.908 0 0 1 172.604 18.011 A 20.619 20.619 0 0 1 177.5 19.5 Q 181.7 21.4 184.5 24.7 Q 187.3 28 188.7 32.4 A 30.348 30.348 0 0 1 190.097 41.242 A 34.055 34.055 0 0 1 190.1 41.7 A 75.204 75.204 0 0 1 189.809 48.397 A 69.426 69.426 0 0 1 189.8 48.5 Z M 295.5 48.5 L 259.1 48.5 A 24.088 24.088 0 0 0 260.239 53.525 Q 261.575 57.338 264.2 59.9 Q 268.4 64 275.3 64 Q 279.8 64 283.4 63.05 Q 287 62.1 290.3 60.6 L 292.4 68.3 A 35.406 35.406 0 0 1 287.581 70.142 A 44.267 44.267 0 0 1 284.3 71 A 40.711 40.711 0 0 1 279.208 71.781 A 54.607 54.607 0 0 1 274.2 72 A 29.178 29.178 0 0 1 268.404 71.447 A 23.608 23.608 0 0 1 264.1 70.15 Q 259.6 68.3 256.45 64.85 A 22.127 22.127 0 0 1 252.804 59.35 A 27.574 27.574 0 0 1 251.6 56.35 A 31.581 31.581 0 0 1 250.249 50.393 A 42.813 42.813 0 0 1 249.9 44.8 A 34.878 34.878 0 0 1 250.704 37.203 A 30.597 30.597 0 0 1 251.6 34 A 27.699 27.699 0 0 1 254.414 28.051 A 24.152 24.152 0 0 1 256.4 25.35 Q 259.5 21.7 263.8 19.65 Q 268.1 17.6 273.4 17.6 A 27.908 27.908 0 0 1 278.304 18.011 A 20.619 20.619 0 0 1 283.2 19.5 Q 287.4 21.4 290.2 24.7 Q 293 28 294.4 32.4 A 30.348 30.348 0 0 1 295.797 41.242 A 34.055 34.055 0 0 1 295.8 41.7 A 75.204 75.204 0 0 1 295.509 48.397 A 69.426 69.426 0 0 1 295.5 48.5 Z M 216 70.8 L 195.1 21.2 L 203.3 17.8 L 221 60.6 L 238.7 17.8 L 246.4 21.2 L 225.4 70.8 L 216 70.8 Z M 112.2 20.7 L 114.1 4.3 L 121 4.3 L 121 20.7 L 135.4 20.7 L 135.4 28.5 L 121 28.5 L 121 53.6 A 21.675 21.675 0 0 0 121.091 55.649 Q 121.187 56.65 121.381 57.513 A 11.029 11.029 0 0 0 121.65 58.5 Q 122.3 60.5 123.4 61.7 Q 124.5 62.9 126.05 63.45 Q 127.6 64 129.3 64 A 13.893 13.893 0 0 0 133.164 63.472 A 12.868 12.868 0 0 0 134 63.2 Q 136.2 62.4 138.2 61.3 L 140.7 68.5 A 18.546 18.546 0 0 1 139.082 69.356 Q 138.28 69.735 137.334 70.108 A 43.365 43.365 0 0 1 135.3 70.85 Q 131.9 72 128.2 72 A 18.502 18.502 0 0 1 123.018 71.311 A 13.951 13.951 0 0 1 116.35 67.1 A 15.787 15.787 0 0 1 113.174 61.376 Q 112.404 58.985 112.139 56.082 A 35.038 35.038 0 0 1 112 52.9 L 112 28.5 L 103 28.5 L 103 20.7 L 112.2 20.7 Z M 0 70.8 L 0 1 Q 4.2 0.5 9.05 0.25 A 189.812 189.812 0 0 1 15.979 0.025 A 222.326 222.326 0 0 1 19.3 0 Q 25.8 0 30.9 1.6 Q 36 3.2 39.5 6 Q 43 8.8 44.8 12.75 A 20.294 20.294 0 0 1 46.598 20.978 A 23.338 23.338 0 0 1 46.6 21.3 A 24.885 24.885 0 0 1 46.028 26.743 A 19.97 19.97 0 0 1 44.45 31.25 Q 42.3 35.6 38.45 38.6 A 25.074 25.074 0 0 1 32.729 41.913 A 31.482 31.482 0 0 1 29.2 43.15 A 39.641 39.641 0 0 1 22.02 44.482 A 49.664 49.664 0 0 1 17.3 44.7 Q 13.1 44.7 9.5 44.4 L 9.5 70.8 L 0 70.8 Z M 338.7 18.2 L 336 27.5 A 9.763 9.763 0 0 0 333.855 26.888 Q 332.759 26.7 331.5 26.7 Q 328.7 26.7 326.05 27.9 A 13.202 13.202 0 0 0 321.938 30.849 A 15.59 15.59 0 0 0 321.35 31.5 Q 319.361 33.829 318.125 37.428 A 26.039 26.039 0 0 0 318.05 37.65 A 22.895 22.895 0 0 0 317.153 41.463 Q 316.866 43.354 316.812 45.498 A 40 40 0 0 0 316.8 46.5 L 316.8 70.8 L 307.8 70.8 L 307.8 18.8 L 316.5 18.8 L 316.5 30.1 Q 317.4 27.7 318.9 25.4 Q 320.4 23.1 322.45 21.4 A 16.676 16.676 0 0 1 326.291 19.03 A 19.32 19.32 0 0 1 327.2 18.65 Q 329.9 17.6 333.2 17.6 Q 334.7 17.6 336.15 17.75 A 19.695 19.695 0 0 1 337.352 17.91 Q 337.944 18.009 338.464 18.139 A 11.443 11.443 0 0 1 338.7 18.2 Z M 9.5 8.4 L 9.5 36.3 Q 10.6 36.438 12.007 36.552 A 95.16 95.16 0 0 0 13.35 36.65 Q 15.284 36.779 17.697 36.797 A 106.907 106.907 0 0 0 18.5 36.8 Q 24.6 36.8 28.793 34.986 A 15.072 15.072 0 0 0 32.35 32.85 A 12.849 12.849 0 0 0 37.15 23.452 A 17.917 17.917 0 0 0 37.2 22.1 A 14.619 14.619 0 0 0 36.462 17.349 A 12.131 12.131 0 0 0 32.55 11.8 Q 28.908 8.824 22.719 8.179 A 34.952 34.952 0 0 0 19.1 8 A 131.125 131.125 0 0 0 15.842 8.039 A 109.939 109.939 0 0 0 14 8.1 A 91.274 91.274 0 0 0 11.117 8.264 A 75.041 75.041 0 0 0 9.5 8.4 Z M 61.2 41.2 L 89.7 41.2 A 24.355 24.355 0 0 0 89.296 36.615 Q 88.8 34.031 87.696 32.007 A 12.422 12.422 0 0 0 85.9 29.5 A 12.488 12.488 0 0 0 78.939 25.725 A 18.395 18.395 0 0 0 75.4 25.4 Q 69.5 25.4 65.75 29.4 A 14.739 14.739 0 0 0 62.957 33.805 Q 62.132 35.761 61.652 38.161 A 32.287 32.287 0 0 0 61.2 41.2 Z M 153.3 41.2 L 181.8 41.2 A 24.355 24.355 0 0 0 181.396 36.615 Q 180.9 34.031 179.796 32.007 A 12.422 12.422 0 0 0 178 29.5 A 12.488 12.488 0 0 0 171.039 25.725 A 18.395 18.395 0 0 0 167.5 25.4 Q 161.6 25.4 157.85 29.4 A 14.739 14.739 0 0 0 155.057 33.805 Q 154.232 35.761 153.752 38.161 A 32.287 32.287 0 0 0 153.3 41.2 Z M 259 41.2 L 287.5 41.2 A 24.355 24.355 0 0 0 287.096 36.615 Q 286.6 34.031 285.496 32.007 A 12.422 12.422 0 0 0 283.7 29.5 A 12.488 12.488 0 0 0 276.739 25.725 A 18.395 18.395 0 0 0 273.2 25.4 Q 267.3 25.4 263.55 29.4 A 14.739 14.739 0 0 0 260.757 33.805 Q 259.932 35.761 259.452 38.161 A 32.287 32.287 0 0 0 259 41.2 Z" vector-effect="non-scaling-stroke"/></g></svg>